<svg xmlns="http://www.w3.org/2000/svg" version="1.1" viewBox="-5.0 -10.0 110.0 135.0">
 <g fill-rule="evenodd">
  <path d="m4.168 8.332c0-2.3008 1.8633-4.1641 4.1641-4.1641h58.336c1.1055 0 2.1641 0.4375 2.9453 1.2188l25 25c0.78125 0.78125 1.2188 1.8398 1.2188 2.9453v58.336c0 2.3008-1.8633 4.1641-4.1641 4.1641h-83.336c-2.3008 0-4.1641-1.8633-4.1641-4.1641zm8.332 4.168v75h75v-52.441l-22.559-22.559z"/>
  <path d="m65.07 4.4844c1.5586-0.64453 3.3516-0.28906 4.543 0.90234l25 25c1.1914 1.1914 1.5469 2.9844 0.90234 4.543-0.64453 1.5547-2.1641 2.5703-3.8477 2.5703h-25c-2.3008 0-4.168-1.8672-4.168-4.168v-25c0-1.6836 1.0156-3.2031 2.5703-3.8477zm5.7617 13.91v10.773h10.777z"/>
  <path d="m45.832 56.25c0-2.3008 1.8672-4.168 4.168-4.168h8.332c5.7539 0 10.418 4.6641 10.418 10.418 0 5.207-3.8203 9.5234-8.8125 10.293l7.5938 7.5938-5.8945 5.8945-7.4688-7.4727v4.5234h-8.3359zm8.3359 8.332v-4.1641h4.1641c1.1523 0 2.0859 0.92969 2.0859 2.082s-0.93359 2.082-2.0859 2.082z"/>
  <path d="m29.156 47.582c-4.8359 2.418-6.2383 4.9844-6.2383 6.5859 0 1.5977 1.4023 4.168 6.2383 6.582 4.5859 2.2969 11.211 3.832 18.762 3.832 0.64844 0 1.2969-0.011719 1.9336-0.03125l0.29688 8.3281c-0.73828 0.023438-1.4805 0.039063-2.2305 0.039063-8.5625 0-16.52-1.7266-22.488-4.7109-5.7227-2.8633-10.848-7.5859-10.848-14.039 0-6.457 5.125-11.18 10.848-14.039 5.9688-2.9844 13.926-4.7109 22.488-4.7109 8.5586 0 16.516 1.7266 22.484 4.7109 5.7227 2.8594 10.848 7.582 10.848 14.039 0 7.168-6.2617 12.195-12.969 15.012-0.29297 0.12109-0.64062 0.25-1.0273 0.34375-0.39062 0.097656-0.89844 0.17578-1.4844 0.14453-0.62891-0.035157-1.2031-0.19141-1.707-0.42969-0.23047-0.10547-0.41406-0.21484-0.53516-0.29297-0.089844-0.054687-0.16797-0.10937-0.20312-0.13281 0.0625 0.039062 0.21484 0.13672 0.39844 0.22656 0.32422 0.15625 0.68359 0.26953 1.0547 0.32422 0.66406 0.089844 1.0781-0.054687 0.96484-0.023437l-2.3164-8.0039c0.625-0.17969 1.5039-0.36719 2.4961-0.23047 0.003906 0.003906 0.007813 0.003906 0.011719 0.003906 5.332-2.4453 6.9844-5.2344 6.9844-6.9414 0-1.6016-1.4062-4.168-6.2422-6.5859-4.5859-2.293-11.211-3.832-18.758-3.832-7.5508 0-14.176 1.5391-18.762 3.832zm38.902 14.371c0.003906 0 0.007812 0.003906 0.011718 0.007813l0.003907 0.003906c0.03125 0.019531 0.023437 0.011718-0.015625-0.011719zm-4.7344 6.8594c-0.007813-0.003906-0.011719-0.007812-0.011719-0.011719h-0.003906c-0.019532-0.015625-0.011719-0.007812 0.015625 0.011719z"/>
 </g>
<text x="0.0" y="117.5" font-size="5.0" font-weight="bold" font-family="Arbeit Regular, Helvetica, Arial-Unicode, Arial, Sans-serif" fill="#000000">Created by Kawalan Icon</text><text x="0.0" y="122.5" font-size="5.0" font-weight="bold" font-family="Arbeit Regular, Helvetica, Arial-Unicode, Arial, Sans-serif" fill="#000000">from Noun Project</text></svg>